<svg width="800" height="500" viewBox="0 0 800 500" xmlns="http://www.w3.org/2000/svg">
  <style>
    .bar {
      fill: url(#grad1);
      transform-origin: center bottom;
      animation: growBar 1s ease-out forwards;
    }
    @keyframes growBar {
      from { transform: scaleY(0); }
      to { transform: scaleY(1); }
    }

    .line path {
      stroke: #4e54c8;
      stroke-width: 4;
      fill: none;
      stroke-dasharray: 600;
      stroke-dashoffset: 600;
      animation: drawLine 2s ease forwards;
    }
    @keyframes drawLine {
      to { stroke-dashoffset: 0; }
    }

    .bubble circle {
      opacity: 0.7;
      animation: floatBubble 2s ease-in-out infinite alternate;
    }
    @keyframes floatBubble {
      from { transform: translateY(0);}
      to { transform: translateY(-10px);}
    }

    .area polygon {
      fill: #4e54c8;
      fill-opacity: 0.4;
      transform-origin: bottom;
      transform: scaleY(0);
      animation: growArea 1s ease-out forwards;
      animation-delay: 1s;
    }
    @keyframes growArea {
      to { transform: scaleY(1);}
    }

    .radial path {
      fill: #4e54c8;
      opacity: 0.6;
      transform-origin: center;
      transform: scale(0);
      animation: popIn 1s ease-out forwards;
      animation-delay: 1.5s;
    }
    @keyframes popIn {
      to { transform: scale(1);}
    }

    .scatter circle {
      fill: #4e54c8;
      transform-origin: center;
      animation: pulse 1.5s ease-in-out infinite alternate;
    }
    @keyframes pulse {
      from { transform: scale(1);}
      to { transform: scale(1.5);}
    }

    .radar polygon {
      fill: #4e54c8;
      opacity: 0.4;
      stroke: #4e54c8;
      stroke-width: 2;
      transform: scale(0);
      transform-origin: center;
      animation: scaleIn 1s ease-out forwards;
      animation-delay: 1s;
    }
    @keyframes scaleIn {
      to { transform: scale(1);}
    }

    .column {
      transform-origin: center bottom;
      animation: growColumn 1s ease-out forwards;
    }
    @keyframes growColumn {
      from { transform: scaleY(0);}
      to { transform: scaleY(1);}
    }

    .title-text {
      font-family: 'Poppins', sans-serif;
      font-size: 24px;
      fill: #4e54c8;
      font-weight: bold;
      opacity: 0;
      animation: fadeTitle 1s ease forwards;
    }
    @keyframes fadeTitle {
      to { opacity: 1; }
    }
  </style>

  <!-- Fondo -->
  <rect x="0" y="0" width="800" height="500" rx="20" ry="20" fill="#ffffff" stroke="#dddddd" stroke-width="2"/>

  <!-- FRASE en esquina -->
  <text x="20" y="40" class="title-text">¡Un buen trabajo construye un buen equipo!</text>

  <!-- Gráfico de barras -->
  <rect class="bar" x="50" y="250" width="40" height="150"/>
  <rect class="bar" x="110" y="200" width="40" height="200"/>
  <rect class="bar" x="170" y="230" width="40" height="170"/>
  <rect class="bar" x="230" y="180" width="40" height="220"/>

  <!-- Gráfico de pastel -->
  <g>
    <circle cx="600" cy="250" r="80" fill="#eee" stroke="#cccccc" stroke-width="2"/>
    <path d="M600,250 L600,170 A80,80 0 0,1 680,250 Z" fill="#4e54c8">
      <animateTransform attributeName="transform" type="rotate" from="0 600 250" to="360 600 250" dur="4s" repeatCount="indefinite"/>
    </path>
    <path d="M600,250 L680,250 A80,80 0 0,1 640,320 Z" fill="#5ac85a">
      <animateTransform attributeName="transform" type="rotate" from="0 600 250" to="360 600 250" dur="4s" repeatCount="indefinite"/>
    </path>
    <path d="M600,250 L640,320 A80,80 0 0,1 560,320 Z" fill="#ff9933">
      <animateTransform attributeName="transform" type="rotate" from="0 600 250" to="360 600 250" dur="4s" repeatCount="indefinite"/>
    </path>
    <path d="M600,250 L560,320 A80,80 0 0,1 520,250 Z" fill="#ffd966">
      <animateTransform attributeName="transform" type="rotate" from="0 600 250" to="360 600 250" dur="4s" repeatCount="indefinite"/>
    </path>
  </g>

  <!-- Burbujas -->
  <g class="bubble">
    <circle cx="700" cy="100" r="10" fill="#4e54c8"/>
    <circle cx="740" cy="130" r="15" fill="#5ac85a"/>
    <circle cx="700" cy="160" r="20" fill="#ff9933"/>
  </g>

  <!-- Línea -->
  <g class="line">
    <path d="M50 400 Q 150 300 250 350 Q 350 250 450 300"/>
  </g>

  <!-- Área -->
  <g class="area">
    <polygon points="50,450 100,420 150,440 200,410 250,430 250,500 50,500"/>
  </g>

  <!-- Columnas apiladas -->
  <g>
    <rect class="column" x="500" y="400" width="30" height="40" fill="#4e54c8"/>
    <rect class="column" x="500" y="360" width="30" height="40" fill="#5ac85a"/>
    <rect class="column" x="500" y="320" width="30" height="40" fill="#ff9933"/>

    <rect class="column" x="550" y="380" width="30" height="60" fill="#4e54c8"/>
    <rect class="column" x="550" y="340" width="30" height="40" fill="#5ac85a"/>
  </g>

  <!-- Gráfico radial tipo velocímetro -->
  <g class="radial">
    <path d="M100,400 L160,400 A60,60 0 0,1 100,340 Z"/>
  </g>

  <!-- Gráfico de dispersión -->
  <g class="scatter">
    <circle cx="300" cy="200" r="5"/>
    <circle cx="320" cy="220" r="5"/>
    <circle cx="340" cy="210" r="5"/>
    <circle cx="360" cy="240" r="5"/>
  </g>

  <!-- Radar chart -->
  <g class="radar" transform="translate(400,400)">
    <polygon points="0,-50 43,-25 35,35 -35,35 -43,-25"/>
  </g>

  <defs>
    <linearGradient id="grad1" x1="0%" y1="0%" x2="0%" y2="100%">
      <stop offset="0%" style="stop-color:#8f94fb;stop-opacity:1" />
      <stop offset="100%" style="stop-color:#4e54c8;stop-opacity:1" />
    </linearGradient>
  </defs>
</svg>
